<?xml version="1.0" encoding="UTF-8"?>
<svg width="116px" height="45px" viewBox="0 0 116 45" version="1.1" xmlns="http://www.w3.org/2000/svg" xmlns:xlink="http://www.w3.org/1999/xlink">
    <!-- Generator: Sketch 52.6 (67491) - http://www.bohemiancoding.com/sketch -->
    <title>logo-bloom</title>
    <desc>Created with Sketch.</desc>
    <g id="Logos" stroke="none" stroke-width="1" fill="none" fill-rule="evenodd">
        <g id="logo-bloom">
            <path d="M47.7016292,42.4846154 C47.3605056,42.15 47.1899438,41.6653846 47.1899438,41.0269231 L47.1899438,38.7961538 C47.1899438,38.6423077 47.2364607,38.5230769 47.3294944,38.4307692 C47.4225281,38.3384615 47.5426966,38.2923077 47.6977528,38.2923077 C47.852809,38.2923077 47.9729775,38.3384615 48.0621348,38.4307692 C48.1512921,38.5230769 48.197809,38.6423077 48.197809,38.7961538 L48.197809,41.0730769 C48.197809,41.4384615 48.2830899,41.7153846 48.4497753,41.9076923 C48.6203371,42.1 48.8645506,42.1961538 49.1824157,42.1961538 C49.5041573,42.1961538 49.7483708,42.1 49.9189326,41.9038462 C50.0894944,41.7115385 50.1747753,41.4346154 50.1747753,41.0730769 L50.1747753,38.7961538 C50.1747753,38.6423077 50.2212921,38.5230769 50.3104494,38.4307692 C50.3996067,38.3384615 50.5236517,38.2923077 50.6748315,38.2923077 C50.8298876,38.2923077 50.9500562,38.3384615 51.0430899,38.4307692 C51.1361236,38.5230769 51.1826404,38.6423077 51.1826404,38.7961538 L51.1826404,41.0269231 C51.1826404,41.6615385 51.0120787,42.1461538 50.6709551,42.4846154 C50.3298315,42.8192308 49.8336517,42.9884615 49.1824157,42.9884615 C48.5389326,42.9807692 48.0427528,42.8153846 47.7016292,42.4846154 Z" id="Path" fill="#C54F63"></path>
            <path d="M53.4425843,42.8615385 C53.1441011,42.7807692 52.8998876,42.6653846 52.7138202,42.5192308 C52.6479213,42.4730769 52.6014045,42.4192308 52.5742697,42.3653846 C52.5471348,42.3115385 52.5316292,42.2423077 52.5316292,42.1615385 C52.5316292,42.0538462 52.5665169,41.9576923 52.6324157,41.8730769 C52.702191,41.7884615 52.7797191,41.75 52.865,41.75 C52.9115169,41.75 52.9619101,41.7576923 53.0045506,41.7730769 C53.0510674,41.7884615 53.1053371,41.8153846 53.171236,41.8538462 C53.3611798,41.9730769 53.5511236,42.0576923 53.7449438,42.1115385 C53.938764,42.1653846 54.1519663,42.1923077 54.3845506,42.1923077 C54.6752809,42.1923077 54.896236,42.1461538 55.0474157,42.05 C55.2024719,41.9538462 55.2761236,41.8153846 55.2761236,41.6384615 C55.2761236,41.5038462 55.2063483,41.3961538 55.0629213,41.3115385 C54.9194944,41.2269231 54.6675281,41.15 54.3031461,41.0769231 C53.8961236,40.9923077 53.5705056,40.8923077 53.3262921,40.7769231 C53.0820787,40.6615385 52.903764,40.5153846 52.7952247,40.3384615 C52.682809,40.1653846 52.6285393,39.9538462 52.6285393,39.7038462 C52.6285393,39.4307692 52.7099438,39.1807692 52.8688764,38.9615385 C53.027809,38.7423077 53.248764,38.5692308 53.5317416,38.4461538 C53.8147191,38.3230769 54.1325843,38.2615385 54.4892135,38.2615385 C55.1133146,38.2615385 55.625,38.4153846 56.0281461,38.7230769 C56.0940449,38.7769231 56.1405618,38.8307692 56.1676966,38.8846154 C56.1948315,38.9384615 56.2103371,39.0038462 56.2103371,39.0846154 C56.2103371,39.1923077 56.1754494,39.2884615 56.1095506,39.3730769 C56.0397753,39.4576923 55.9622472,39.4961538 55.8769663,39.4961538 C55.8304494,39.4961538 55.7839326,39.4884615 55.7412921,39.4769231 C55.6986517,39.4653846 55.6405056,39.4346154 55.5668539,39.3923077 C55.3885393,39.2807692 55.2218539,39.1961538 55.0706742,39.1384615 C54.9194944,39.0807692 54.7256742,39.0538462 54.4930899,39.0538462 C54.225618,39.0538462 54.0162921,39.1038462 53.861236,39.2076923 C53.7061798,39.3115385 53.6325281,39.45 53.6325281,39.6269231 C53.6325281,39.7307692 53.6635393,39.8153846 53.7216854,39.8846154 C53.7798315,39.9538462 53.880618,40.0115385 54.0162921,40.0653846 C54.1558427,40.1192308 54.3496629,40.1730769 54.6055056,40.2269231 C55.2024719,40.3576923 55.6288764,40.5269231 55.8924719,40.7307692 C56.152191,40.9346154 56.2839888,41.2153846 56.2839888,41.5730769 C56.2839888,41.85 56.2064607,42.0961538 56.0514045,42.3115385 C55.8963483,42.5230769 55.6753933,42.6884615 55.3924157,42.8076923 C55.1094382,42.9269231 54.7799438,42.9846154 54.407809,42.9846154 C54.062809,42.9807692 53.7410674,42.9423077 53.4425843,42.8615385 Z" id="Path" fill="#C54F63"></path>
            <path d="M57.8074157,42.8 C57.7221348,42.7153846 57.6833708,42.6 57.6833708,42.4461538 L57.6833708,38.7961538 C57.6833708,38.6423077 57.7260112,38.5269231 57.8074157,38.4423077 C57.8888202,38.3615385 58.0089888,38.3192308 58.1640449,38.3192308 L60.493764,38.3192308 C60.819382,38.3192308 60.982191,38.45 60.982191,38.7115385 C60.982191,38.9769231 60.819382,39.1115385 60.493764,39.1115385 L58.6834831,39.1115385 L58.6834831,40.1884615 L60.3619663,40.1884615 C60.6875843,40.1884615 60.8503933,40.3230769 60.8503933,40.5884615 C60.8503933,40.85 60.6875843,40.9807692 60.3619663,40.9807692 L58.6834831,40.9807692 L58.6834831,42.1346154 L60.493764,42.1346154 C60.819382,42.1346154 60.982191,42.2653846 60.982191,42.5346154 C60.982191,42.7961538 60.819382,42.9269231 60.493764,42.9269231 L58.1640449,42.9269231 C58.0089888,42.9230769 57.8888202,42.8846154 57.8074157,42.8 Z" id="Path" fill="#C54F63"></path>
            <path d="M66.1416854,42.5576923 C66.1416854,42.6807692 66.0912921,42.7807692 65.994382,42.8576923 C65.8974719,42.9346154 65.7811798,42.9769231 65.649382,42.9769231 C65.5641011,42.9769231 65.486573,42.9576923 65.4051685,42.9192308 C65.3276404,42.8807692 65.2617416,42.8192308 65.2074719,42.7346154 L64.3391573,41.4538462 C64.2655056,41.3423077 64.1841011,41.2576923 64.1026966,41.2076923 C64.0174157,41.1576923 63.9127528,41.1307692 63.7887079,41.1307692 L63.253764,41.1307692 L63.253764,42.45 C63.253764,42.6076923 63.2072472,42.7307692 63.1180899,42.8230769 C63.0289326,42.9153846 62.9048876,42.9615385 62.7537079,42.9615385 C62.5947753,42.9615385 62.4707303,42.9153846 62.3776966,42.8230769 C62.2846629,42.7307692 62.2381461,42.6076923 62.2381461,42.45 L62.2381461,38.7923077 C62.2381461,38.6384615 62.2807865,38.5230769 62.362191,38.4384615 C62.4435955,38.3576923 62.563764,38.3153846 62.7188202,38.3153846 L64.3701685,38.3153846 C64.9128652,38.3153846 65.323764,38.4346154 65.6028652,38.6692308 C65.8819663,38.9076923 66.0215169,39.25 66.0215169,39.6961538 C66.0215169,40.05 65.9246067,40.3423077 65.7269101,40.5769231 C65.5292135,40.8115385 65.2501124,40.9653846 64.8896067,41.0423077 C65.0214045,41.0692308 65.1376966,41.1192308 65.2423596,41.1961538 C65.3470225,41.2730769 65.4439326,41.3807692 65.5408427,41.5269231 L66.0408989,42.2730769 C66.1106742,42.3730769 66.1416854,42.4653846 66.1416854,42.5576923 Z M64.8585955,40.2115385 C64.9903933,40.1076923 65.0562921,39.95 65.0562921,39.7307692 C65.0562921,39.5076923 64.9903933,39.3461538 64.8585955,39.2461538 C64.7267978,39.1461538 64.5135955,39.0961538 64.2189888,39.0961538 L63.2382584,39.0961538 L63.2382584,40.3615385 L64.2189888,40.3615385 C64.5135955,40.3653846 64.7267978,40.3153846 64.8585955,40.2115385 Z" id="Shape" fill="#C54F63" fill-rule="nonzero"></path>
            <path d="M70.1305056,42.8 C70.0452247,42.7153846 70.0064607,42.6 70.0064607,42.4461538 L70.0064607,38.7961538 C70.0064607,38.6423077 70.0491011,38.5269231 70.1305056,38.4423077 C70.2119101,38.3615385 70.3320787,38.3192308 70.4871348,38.3192308 L72.8168539,38.3192308 C73.1424719,38.3192308 73.3052809,38.45 73.3052809,38.7115385 C73.3052809,38.9769231 73.1424719,39.1115385 72.8168539,39.1115385 L71.006573,39.1115385 L71.006573,40.1884615 L72.6850562,40.1884615 C73.0106742,40.1884615 73.1734831,40.3230769 73.1734831,40.5884615 C73.1734831,40.85 73.0106742,40.9807692 72.6850562,40.9807692 L71.006573,40.9807692 L71.006573,42.1346154 L72.8168539,42.1346154 C73.1424719,42.1346154 73.3052809,42.2653846 73.3052809,42.5346154 C73.3052809,42.7961538 73.1424719,42.9269231 72.8168539,42.9269231 L70.4871348,42.9269231 C70.3320787,42.9230769 70.2119101,42.8846154 70.1305056,42.8 Z" id="Path" fill="#C54F63"></path>
            <path d="M78.356236,42.4923077 C78.356236,42.6192308 78.3058427,42.7269231 78.2089326,42.8230769 C78.1120225,42.9153846 77.9957303,42.9653846 77.8716854,42.9653846 C77.7398876,42.9653846 77.6274719,42.9115385 77.5344382,42.8038462 L76.2978652,41.3038462 L75.0496629,42.8038462 C74.9527528,42.9115385 74.8403371,42.9653846 74.7124157,42.9653846 C74.5883708,42.9653846 74.4798315,42.9192308 74.3790449,42.8230769 C74.2821348,42.7307692 74.2317416,42.6192308 74.2317416,42.4923077 C74.2317416,42.3846154 74.2705056,42.2846154 74.3519101,42.1923077 L75.7008989,40.6 L74.398427,39.0538462 C74.3131461,38.9576923 74.274382,38.8576923 74.274382,38.7538462 C74.274382,38.6269231 74.3247753,38.5192308 74.4216854,38.4230769 C74.5185955,38.3307692 74.6310112,38.2846154 74.7550562,38.2846154 C74.8868539,38.2846154 74.9992697,38.3423077 75.0961798,38.4538462 L76.3017416,39.8961538 L77.4917978,38.4538462 C77.5887079,38.3423077 77.7011236,38.2846154 77.8329213,38.2846154 C77.9569663,38.2846154 78.0655056,38.3307692 78.1662921,38.4230769 C78.2632022,38.5153846 78.3135955,38.6269231 78.3135955,38.7538462 C78.3135955,38.8615385 78.2748315,38.9615385 78.193427,39.0538462 L76.8909551,40.6 L78.232191,42.1923077 C78.3135955,42.2884615 78.356236,42.3884615 78.356236,42.4923077 Z" id="Path" fill="#C54F63"></path>
            <path d="M79.7711236,42.8269231 C79.6780899,42.7346154 79.631573,42.6115385 79.631573,42.4538462 L79.631573,38.7961538 C79.631573,38.6423077 79.6742135,38.5269231 79.755618,38.4423077 C79.8370225,38.3615385 79.957191,38.3192308 80.1122472,38.3192308 L81.7635955,38.3192308 C82.2675281,38.3192308 82.6590449,38.4461538 82.9420225,38.6961538 C83.2211236,38.95 83.3645506,39.3 83.3645506,39.7538462 C83.3645506,40.2076923 83.225,40.5576923 82.9420225,40.8115385 C82.6629213,41.0653846 82.2675281,41.1923077 81.7635955,41.1923077 L80.6588202,41.1923077 L80.6588202,42.4538462 C80.6588202,42.6115385 80.6123034,42.7346154 80.5192697,42.8269231 C80.426236,42.9192308 80.302191,42.9653846 80.1432584,42.9653846 C79.9882022,42.9615385 79.8602809,42.9192308 79.7711236,42.8269231 Z M81.6317978,40.4230769 C82.1434831,40.4230769 82.4032022,40.2038462 82.4032022,39.7653846 C82.4032022,39.3230769 82.1473596,39.1 81.6317978,39.1 L80.6588202,39.1 L80.6588202,40.4269231 L81.6317978,40.4269231 L81.6317978,40.4230769 Z" id="Shape" fill="#C54F63" fill-rule="nonzero"></path>
            <path d="M84.8104494,42.8 C84.7251685,42.7153846 84.6864045,42.6 84.6864045,42.4461538 L84.6864045,38.7961538 C84.6864045,38.6423077 84.7290449,38.5269231 84.8104494,38.4423077 C84.8918539,38.3615385 85.0120225,38.3192308 85.1670787,38.3192308 L87.4967978,38.3192308 C87.8224157,38.3192308 87.9852247,38.45 87.9852247,38.7115385 C87.9852247,38.9769231 87.8224157,39.1115385 87.4967978,39.1115385 L85.6865169,39.1115385 L85.6865169,40.1884615 L87.365,40.1884615 C87.690618,40.1884615 87.853427,40.3230769 87.853427,40.5884615 C87.853427,40.85 87.690618,40.9807692 87.365,40.9807692 L85.6865169,40.9807692 L85.6865169,42.1346154 L87.4967978,42.1346154 C87.8224157,42.1346154 87.9852247,42.2653846 87.9852247,42.5346154 C87.9852247,42.7961538 87.8224157,42.9269231 87.4967978,42.9269231 L85.1670787,42.9269231 C85.0120225,42.9230769 84.8918539,42.8846154 84.8104494,42.8 Z" id="Path" fill="#C54F63"></path>
            <path d="M93.1447191,42.5576923 C93.1447191,42.6807692 93.0943258,42.7807692 92.9974157,42.8576923 C92.8966292,42.9346154 92.7842135,42.9769231 92.6524157,42.9769231 C92.5671348,42.9769231 92.4896067,42.9576923 92.4082022,42.9192308 C92.3306742,42.8807692 92.2647753,42.8192308 92.2105056,42.7346154 L91.342191,41.4538462 C91.2685393,41.3423077 91.1871348,41.2576923 91.1057303,41.2076923 C91.0204494,41.1576923 90.9157865,41.1307692 90.7917416,41.1307692 L90.2567978,41.1307692 L90.2567978,42.45 C90.2567978,42.6076923 90.2102809,42.7307692 90.1211236,42.8230769 C90.0319663,42.9153846 89.9079213,42.9615385 89.7567416,42.9615385 C89.597809,42.9615385 89.473764,42.9153846 89.3807303,42.8230769 C89.2876966,42.7307692 89.2411798,42.6076923 89.2411798,42.45 L89.2411798,38.7923077 C89.2411798,38.6384615 89.2838202,38.5230769 89.3652247,38.4384615 C89.4505056,38.3576923 89.5667978,38.3153846 89.7218539,38.3153846 L91.3732022,38.3153846 C91.9158989,38.3153846 92.3267978,38.4346154 92.6058989,38.6692308 C92.885,38.9076923 93.0245506,39.25 93.0245506,39.6961538 C93.0245506,40.05 92.9276404,40.3423077 92.7299438,40.5769231 C92.5322472,40.8115385 92.2531461,40.9653846 91.8926404,41.0423077 C92.0244382,41.0692308 92.1407303,41.1192308 92.2453933,41.1961538 C92.3500562,41.2730769 92.4469663,41.3807692 92.5438764,41.5269231 L93.0439326,42.2730769 C93.1137079,42.3730769 93.1447191,42.4653846 93.1447191,42.5576923 Z M91.8616292,40.2115385 C91.993427,40.1076923 92.0593258,39.95 92.0593258,39.7307692 C92.0593258,39.5076923 91.993427,39.3461538 91.8616292,39.2461538 C91.7298315,39.1461538 91.5166292,39.0961538 91.2220225,39.0961538 L90.2412921,39.0961538 L90.2412921,40.3615385 L91.2220225,40.3615385 C91.5205056,40.3653846 91.7298315,40.3153846 91.8616292,40.2115385 Z" id="Shape" fill="#C54F63" fill-rule="nonzero"></path>
            <path d="M94.6526404,42.8269231 C94.5596067,42.7346154 94.5130899,42.6115385 94.5130899,42.4538462 L94.5130899,38.7923077 C94.5130899,38.6384615 94.5596067,38.5192308 94.6526404,38.4269231 C94.7456742,38.3346154 94.8697191,38.2884615 95.0286517,38.2884615 C95.1875843,38.2884615 95.3116292,38.3346154 95.4046629,38.4269231 C95.4976966,38.5192308 95.5442135,38.6384615 95.5442135,38.7923077 L95.5442135,42.4538462 C95.5442135,42.6115385 95.4976966,42.7346154 95.4046629,42.8269231 C95.3116292,42.9192308 95.1875843,42.9653846 95.0286517,42.9653846 C94.8697191,42.9615385 94.7456742,42.9192308 94.6526404,42.8269231 Z" id="Path" fill="#C54F63"></path>
            <path d="M97.2459551,42.8 C97.1606742,42.7153846 97.1219101,42.6 97.1219101,42.4461538 L97.1219101,38.7961538 C97.1219101,38.6423077 97.1645506,38.5269231 97.2459551,38.4423077 C97.331236,38.3615385 97.4475281,38.3192308 97.6025843,38.3192308 L99.9323034,38.3192308 C100.257921,38.3192308 100.42073,38.45 100.42073,38.7115385 C100.42073,38.9769231 100.257921,39.1115385 99.9323034,39.1115385 L98.1220225,39.1115385 L98.1220225,40.1884615 L99.8005056,40.1884615 C100.126124,40.1884615 100.288933,40.3230769 100.288933,40.5884615 C100.288933,40.85 100.126124,40.9807692 99.8005056,40.9807692 L98.1220225,40.9807692 L98.1220225,42.1346154 L99.9323034,42.1346154 C100.257921,42.1346154 100.42073,42.2653846 100.42073,42.5346154 C100.42073,42.7961538 100.257921,42.9269231 99.9323034,42.9269231 L97.6025843,42.9269231 C97.4475281,42.9230769 97.3273596,42.8846154 97.2459551,42.8 Z" id="Path" fill="#C54F63"></path>
            <path d="M105.572472,38.4307692 C105.661629,38.5230769 105.708146,38.6461538 105.708146,38.7923077 L105.708146,42.4538462 C105.708146,42.6076923 105.661629,42.7307692 105.572472,42.8230769 C105.483315,42.9153846 105.367022,42.9653846 105.219719,42.9653846 C105.060787,42.9653846 104.932865,42.9076923 104.839831,42.7961538 L102.634157,39.9961538 L102.634157,42.4576923 C102.634157,42.6115385 102.591517,42.7346154 102.506236,42.8269231 C102.420955,42.9192308 102.304663,42.9692308 102.161236,42.9692308 C102.017809,42.9692308 101.901517,42.9230769 101.81236,42.8269231 C101.723202,42.7346154 101.680562,42.6115385 101.680562,42.4576923 L101.680562,38.7961538 C101.680562,38.6461538 101.727079,38.5269231 101.816236,38.4346154 C101.905393,38.3423077 102.021685,38.2923077 102.168989,38.2923077 C102.331798,38.2923077 102.455843,38.35 102.545,38.4615385 L104.750674,41.2423077 L104.750674,38.7923077 C104.750674,38.6423077 104.793315,38.5230769 104.882472,38.4307692 C104.971629,38.3384615 105.084045,38.2884615 105.223596,38.2884615 C105.363146,38.2884615 105.483315,38.3346154 105.572472,38.4307692 Z" id="Path" fill="#C54F63"></path>
            <path d="M108.220056,42.6961538 C107.878933,42.5038462 107.615337,42.2307692 107.42927,41.8730769 C107.243202,41.5153846 107.154045,41.1 107.154045,40.6192308 C107.154045,40.1423077 107.247079,39.7230769 107.42927,39.3692308 C107.615337,39.0153846 107.875056,38.7423077 108.220056,38.55 C108.56118,38.3576923 108.960449,38.2615385 109.417865,38.2615385 C109.991573,38.2615385 110.487753,38.4192308 110.906404,38.7307692 C110.972303,38.7846154 111.01882,38.8346154 111.045955,38.8884615 C111.07309,38.9423077 111.084719,39.0076923 111.084719,39.0846154 C111.084719,39.1961538 111.053708,39.2961538 110.987809,39.3730769 C110.925787,39.4538462 110.848258,39.4923077 110.755225,39.4923077 C110.693202,39.4923077 110.638933,39.4846154 110.592416,39.4692308 C110.545899,39.4538462 110.495506,39.4269231 110.43736,39.3884615 C110.262921,39.2769231 110.100112,39.1923077 109.948933,39.1423077 C109.801629,39.0923077 109.63882,39.0653846 109.468258,39.0653846 C109.04573,39.0653846 108.731742,39.1961538 108.518539,39.4538462 C108.305337,39.7115385 108.200674,40.1 108.200674,40.6115385 C108.200674,41.6461538 108.623202,42.1653846 109.472135,42.1653846 C109.634944,42.1653846 109.79,42.1384615 109.933427,42.0884615 C110.076854,42.0384615 110.247416,41.9576923 110.441236,41.8423077 C110.507135,41.8038462 110.561404,41.7769231 110.604045,41.7615385 C110.646685,41.7461538 110.697079,41.7384615 110.755225,41.7384615 C110.848258,41.7384615 110.925787,41.7769231 110.987809,41.8576923 C111.049831,41.9384615 111.084719,42.0346154 111.084719,42.15 C111.084719,42.2269231 111.069213,42.2961538 111.042079,42.35 C111.014944,42.4038462 110.968427,42.4538462 110.906404,42.5038462 C110.491629,42.8153846 109.995449,42.9730769 109.417865,42.9730769 C108.960449,42.9807692 108.56118,42.8884615 108.220056,42.6961538 Z" id="Path" fill="#C54F63"></path>
            <path d="M112.530618,42.8 C112.445337,42.7153846 112.406573,42.6 112.406573,42.4461538 L112.406573,38.7961538 C112.406573,38.6423077 112.449213,38.5269231 112.530618,38.4423077 C112.615899,38.3615385 112.732191,38.3192308 112.887247,38.3192308 L115.216966,38.3192308 C115.542584,38.3192308 115.705393,38.45 115.705393,38.7115385 C115.705393,38.9769231 115.542584,39.1115385 115.216966,39.1115385 L113.406685,39.1115385 L113.406685,40.1884615 L115.085169,40.1884615 C115.410787,40.1884615 115.573596,40.3230769 115.573596,40.5884615 C115.573596,40.85 115.410787,40.9807692 115.085169,40.9807692 L113.406685,40.9807692 L113.406685,42.1346154 L115.216966,42.1346154 C115.542584,42.1346154 115.705393,42.2653846 115.705393,42.5346154 C115.705393,42.7961538 115.542584,42.9269231 115.216966,42.9269231 L112.887247,42.9269231 C112.732191,42.9230769 112.612022,42.8846154 112.530618,42.8 Z" id="Path" fill="#C54F63"></path>
            <path d="M114.525985,32.6328898 C113.251294,32.0712273 113.644717,29.8874211 113.660454,28.8230119 C113.680125,27.4993739 113.794218,26.1325311 113.695862,24.8128208 C113.589638,23.3831347 113.034911,21.7963402 111.370732,21.7060029 C109.454761,21.6038825 108.148596,23.7798333 107.235855,25.1545315 C106.724405,25.9243625 106.268034,26.7256152 105.835269,27.538651 C105.921822,26.4703141 105.976901,25.4059049 105.95723,24.3572066 C105.933624,22.9078819 105.11137,21.2700272 103.411782,21.5646054 C101.637444,21.8709667 100.472912,24.4946764 99.7096708,25.8733023 C98.9542985,27.2401451 98.3287557,28.6619758 97.7858319,30.1152282 C97.3884745,27.6486268 98.010083,25.1466761 98.4703881,22.5897375 C98.6867708,21.3917862 97.0304595,20.908678 96.6291679,22.083063 C96.2475475,23.2063878 95.9131379,24.3886283 95.6928209,25.5905073 C95.1853051,26.2739286 94.5794336,26.8316633 93.6942316,27.1812295 C93.2811373,27.3461932 92.8287007,27.4483137 92.3801984,27.4797354 C93.5211254,23.5480985 89.3114982,20.354871 85.4402148,21.7767017 C84.0829051,22.2755207 82.9498466,23.2535203 82.1551319,24.4632547 C82.1551319,24.4671824 82.1511977,24.4671824 82.1511977,24.4711101 C82.1511977,24.4711101 82.1511977,24.4750379 82.1472635,24.4750379 C82.0292365,24.6557125 81.9151438,24.8403148 81.8128538,25.0288448 C81.2227192,25.9675673 80.5499657,26.741326 79.4287098,27.1812295 C79.0156156,27.3461932 78.563179,27.4483137 78.1146766,27.4797354 C79.2556036,23.5480985 75.0459764,20.354871 71.1746931,21.7767017 C68.7118645,22.6800748 66.9808028,25.1702424 66.677867,27.7428919 C66.0523243,30.1113005 65.1985961,33.0492269 63.2275464,32.4875645 C61.0637193,31.8748419 62.4446344,26.3760491 62.6098721,24.9817123 C62.6885567,24.2982909 62.779044,23.6148696 62.8655971,22.9314482 C62.897071,22.6800748 62.9285448,22.4247737 62.9600187,22.1734003 C63.1173879,22.055569 63.2708229,21.9377378 63.4242579,21.8159788 C66.3906681,19.4829195 68.6292456,16.3368245 69.8763968,12.7036936 C70.9425735,9.59687562 72.5123316,1.76109587 68.2476252,0.182156796 C66.3749312,-0.513047723 64.8602523,0.893072151 64.1678276,2.51521603 C62.948216,5.35494974 62.8695314,8.90559881 62.3738183,11.9338626 C61.8269601,15.276343 61.3233786,18.6227512 60.8827447,21.9809426 L60.7725862,22.7507735 C59.9975427,23.7523394 58.5654826,24.6792787 57.8219129,25.4019772 C57.9163345,23.6855683 57.3773448,22.1027015 55.780047,21.1168465 C53.2660734,19.5654014 50.7166917,21.7531354 48.832195,24.4279053 C49.0013669,22.7468458 49.1862758,21.0657863 49.3829874,19.3886545 C49.5993701,17.5661975 49.8432924,15.7476681 50.0990174,13.9291388 C50.3508082,12.1106095 51.3973136,6.65502147 51.4130506,4.65581751 C51.420919,3.71316732 50.3744136,3.54034812 49.9691878,4.392661 C49.1351308,6.15620241 48.2499288,11.7099831 47.946993,13.5363679 C47.6440572,15.3431141 47.384398,17.1616434 47.1365414,18.9762451 C46.6447625,22.609376 46.2906818,26.2621455 46.0034829,29.9188427 C45.9602063,30.4647943 46.3260898,30.9439748 46.7745922,31.171782 C46.5660779,32.4993476 47.0499883,33.9368892 48.2656657,34.6203106 C50.1816363,35.7004306 52.5500433,34.2589613 53.9939061,33.0060221 C55.2646628,31.9062636 56.6298409,29.8834934 57.3419367,27.7586027 C58.231073,27.2872776 59.320855,26.6077839 60.2886758,25.7986758 C59.9700031,27.7939521 59.7339492,29.8677825 60.1863858,31.6745287 C60.7135728,33.7679977 62.7160964,35.0130815 64.7579623,34.0036602 C66.0759297,33.3516605 66.7329462,32.2754682 67.1617774,31.0539507 C67.4214367,31.6195408 67.7833859,32.1537092 68.2554937,32.6328898 C71.2887858,35.7004306 76.0295342,34.3257324 77.3002908,30.3587462 C77.3947124,30.064168 77.4851997,29.7303127 77.5599501,29.3689635 C78.0045182,29.3846743 78.4294151,29.3571803 78.7992328,29.294337 C79.5113287,29.172578 80.2273587,28.9251323 80.8883095,28.5637831 C80.8922438,30.0406017 81.3918911,31.4899264 82.5170812,32.628962 C85.5503733,35.6965029 90.2911217,34.3218047 91.5618783,30.3548184 C91.6562999,30.0602403 91.7467872,29.726385 91.8215376,29.3650357 C92.2661057,29.3807466 92.6910027,29.3532526 93.0608204,29.2904093 C93.8673377,29.1529394 94.6817236,28.8544336 95.4134905,28.4145301 C95.4095563,30.3076859 95.8147821,32.1654924 96.8966956,33.8269133 C97.3412637,34.506407 98.6002177,34.5024793 98.7733238,33.5833954 C99.3988666,30.3037582 100.736505,27.1773017 102.621002,24.4239776 C103.490467,23.1553276 103.864219,23.838749 104.080602,24.8756642 C104.253708,25.7004831 103.852416,27.0201934 103.773731,27.8725063 C103.608494,29.6164091 103.462927,31.3642397 103.333098,33.1120703 C103.246545,34.2707445 104.828105,34.2707445 105.197923,33.3634437 C106.016243,31.3720951 106.862103,29.3728912 107.920411,27.4954462 C108.435795,26.5763623 109.191168,25.0052786 110.037027,24.3729174 C110.395042,24.1058332 111.284179,23.6345081 111.724812,24.1411826 C111.945129,24.392556 111.799563,25.323423 111.795629,25.6258566 C111.760221,28.1474459 110.717649,32.8135644 113.585704,34.223612 C114.667617,34.7459973 115.596096,33.1042148 114.525985,32.6328898 Z M63.2983625,19.5654014 C63.884563,15.1192347 64.5337111,10.684851 65.2025304,6.25439513 C65.3598996,5.2096245 65.4149788,3.77601066 66.0090477,2.86085443 C66.6424589,1.87892715 67.5512663,1.21907201 68.5387583,2.49557748 C68.8967733,2.96297487 69.0816822,3.68960106 69.1918406,4.25519118 C69.6482114,6.5843227 69.2587226,9.2041047 68.5938375,11.4507543 C67.6732275,14.5811385 65.9382316,17.4326554 63.6327722,19.7185821 C63.4950741,19.8560519 63.3652445,19.9974494 63.2236122,20.1270638 C63.2472175,19.9346061 63.2747572,19.7500038 63.2983625,19.5654014 Z M54.2693023,29.8992042 C53.4234426,31.1050109 51.5114063,33.1552751 49.8668978,33.088504 C47.3214503,32.9863836 48.8715373,30.2880474 49.8000158,29.7067464 C50.6773494,29.1568672 51.7395917,28.9958311 52.7388864,28.8465781 C53.5178642,28.7287469 54.3007762,28.6501927 55.0679512,28.5048674 C54.8397658,28.9997588 54.5683039,29.4750116 54.2693023,29.8992042 Z M55.6974282,26.6549164 C54.4738823,27.0437596 53.1441122,27.0869644 51.8615529,27.3147716 C50.9842194,27.4718799 50.0478724,27.7193256 49.2138154,28.1356628 C49.6111728,27.3069162 50.0714778,26.5135189 50.6183359,25.755471 C51.114049,25.0720496 51.6648414,24.4121945 52.2628445,23.8151827 C53.9427611,22.1459063 55.7249678,22.6211591 55.8390605,25.0759774 C55.8666001,25.5983627 55.8075866,26.1286034 55.6974282,26.6549164 Z M73.846036,26.9730609 C73.9797998,28.0374701 74.7627118,28.6816144 75.7305326,29.0311805 C75.7226642,29.1411563 75.7108615,29.2472045 75.6911903,29.3375418 C75.5692292,29.8717102 75.3843203,30.4058787 75.0971214,30.8772038 C74.2827356,32.2047695 72.8310044,32.7310825 71.3477993,32.2911791 C68.4285998,31.4310108 68.0194398,27.8293015 69.5223161,25.5630133 C70.4429261,24.1804597 72.0480924,23.2260263 73.7319433,23.3438576 C74.8650018,23.4224118 75.8092173,24.0783392 76.2616538,24.9777846 C74.9987657,24.4946764 73.6689956,25.5630133 73.846036,26.9730609 Z M88.1036893,26.9730609 C88.2374531,28.0374701 89.0203651,28.6816144 89.9881859,29.0311805 C89.9803175,29.1411563 89.9685148,29.2472045 89.9488436,29.3375418 C89.8268825,29.8717102 89.6419736,30.4058787 89.3547747,30.8772038 C88.5403889,32.2047695 87.0886577,32.7310825 85.6054525,32.2911791 C82.6862531,31.4310108 82.2770931,27.8293015 83.7799693,25.5630133 C84.7005794,24.1804597 86.3057457,23.2260263 87.9895966,23.3438576 C89.1226551,23.4224118 90.0668705,24.0783392 90.5193071,24.9777846 C89.2603532,24.4946764 87.9305831,25.5630133 88.1036893,26.9730609 Z" id="Shape" fill="#444443" fill-rule="nonzero"></path>
            <path d="M42,24 C42,12.4038031 32.5961969,3 21,3 C9.40380313,3 0,12.4038031 0,24 C0,35.5961969 9.40380313,45 21,45 C23.8696868,45 26.602349,44.4244966 29.0922819,43.3831096 C26.8724832,40.9479866 25.0128635,38.0782998 23.6034676,35.200783 C22.6521253,33.2550336 22.0022371,31.2583893 21.5285235,29.1482103 C21.0743848,27.1202461 20.310962,25.1079418 20.5067114,23.0134228 C20.5497763,22.5514541 21.2192394,22.253915 21.4697987,22.7511186 C22.4250559,24.6538031 22.6717002,26.7796421 23.6112975,28.6979866 C24.4295302,30.3736018 25.3221477,32.033557 26.2265101,33.6661074 C27.8903803,36.6689038 29.8791946,39.2841163 32.0402685,41.860179 C38.0184564,38.1644295 42,31.5480984 42,24 Z M35.5872483,24.4149888 C30.7365772,22.1168904 25.4630872,21.0598434 20.1387025,20.9071588 C16.0749441,24.2348993 12.7941834,28.2751678 9.58780761,32.409396 C8.7852349,33.442953 6.99217002,32.041387 7.77908277,31.01566 C10.4765101,27.5 13.2091723,23.8747204 16.5408277,20.9384787 C13.8120805,21.0637584 11.0872483,21.4004474 8.42505593,21.9250559 C7.00391499,22.2030201 6.39317673,20.1085011 7.82214765,19.7365772 C11.7136465,18.7225951 15.5973154,18.4289709 19.4340045,18.6991051 C19.966443,18.3389262 20.5145414,17.9944072 21.0822148,17.6772931 C26.3635347,14.7175615 31.9697987,14.0520134 37.7522371,15.8450783 C38.5195749,16.0838926 38.0615213,17.1918345 37.3255034,16.8590604 C32.545302,14.7136465 27.0095078,16.3266219 22.6834452,19.0592841 C27.314877,19.7757271 31.852349,21.2829978 36.2097315,23.3540268 C36.9144295,23.6985459 36.2919463,24.7477629 35.5872483,24.4149888 Z" id="Shape" fill="#C54F63" fill-rule="nonzero"></path>
        </g>
    </g>
</svg>