<?xml version="1.0" encoding="utf-8"?>
<!-- Generator: Adobe Illustrator 23.0.1, SVG Export Plug-In . SVG Version: 6.00 Build 0)  -->
<svg version="1.1" id="Capa_1" xmlns="http://www.w3.org/2000/svg" xmlns:xlink="http://www.w3.org/1999/xlink" x="0px" y="0px"
	 viewBox="0 0 394.9 322" style="enable-background:new 0 0 394.9 322;" xml:space="preserve">
<style type="text/css">
	.st0{fill:#B1B1B1;}
	.st1{fill:#008AFE;}
	.st2{fill:#1D1D1B;}
</style>
<title>logo-ser</title>
<polygon class="st0" points="180.8,146.5 180.8,146.5 180.8,146.5 "/>
<polygon class="st0" points="357.6,279.9 357.6,279.9 357.1,279.9 "/>
<path class="st0" d="M354.8,254.1c-1.4-5.4-3.5-10.5-6.4-15.3c-2.1-3.3-4.7-6.3-7.7-8.9c-4.7-4-10.2-6.9-16.2-8.6
	c-5-1.5-10.2-2.3-15.5-2.6v-31.4c11.4-6,21.2-14.5,28.7-25c7.9-11.2,12.8-24.2,14.3-37.8l0,0c0.6-4.8,0.9-9.6,0.9-14.4
	c0.1-10.4-1.6-20.6-5.1-30.4c-2.6-6.9-6.3-13.3-11-18.9c-7.6-8.8-17.3-15.5-28.2-19.4c-11.7-4.5-25.6-6.8-41.8-6.8
	c-9.9-0.2-19.7,1.8-28.8,5.8c-5.9,2.7-11.2,6.4-15.9,10.9c-6.6,6.4-11.9,13.9-15.8,22.2c-3.7,7.9-6.8,16.1-9,24.6l-16.5,48.4
	c-0.4,1.1-0.5,2.2-0.5,3.4c0,2.7,1,5.3,2.8,7.2c0.9,0.9,2,1.7,3.2,2.3c1.2,0.6,2.6,1,4,1l16.9,0.8v35.3c0,2.8,1.1,5.5,3.1,7.5
	c1.9,2,4.6,3.1,7.4,3h16.2v10.7h11.2v-11.3c0.1-5.7-4.6-10.4-10.3-10.5c-0.1,0-0.2,0-0.3,0h-16.1V177c2,0.6,4.1,0.9,6.2,0.9
	c3.9,0,7.7-1.1,11-3.2c3.4-2.1,6.2-5.2,7.9-8.8l-5.8-2.7l0,0c-1.2,2.5-3.1,4.6-5.5,6.1c-2.3,1.5-4.9,2.2-7.6,2.2
	c-2.1,0-4.2-0.4-6.1-1.3v-9.6c0.1-5.6-4.4-10.3-10-10.5l-16.7-0.8l16.3-47.9h0.1c1.8-7,4.1-13.8,7.1-20.4c2.1-4.9,4.7-9.6,7.8-13.9
	c4.5-6.4,10.4-11.6,17.2-15.3c7-3.7,15.6-6,26.5-6c13.4,0,24.8,1.7,34.3,4.8c6.5,2,12.7,5.1,18.2,9.1c7.4,5.4,13.2,12.7,16.8,21.1
	c3.7,8.4,5.6,18.3,5.6,29.3c0,4.4-0.3,8.8-0.8,13.1l0,0c-2.5,23.3-16.6,43.7-37.4,54.4c-1.7,0.9-3.1,2.3-4.1,3.9
	c-1,1.6-1.6,3.5-1.6,5.4v42.8h5.6c8.4,0,15.1,1.2,20.5,3.2c6.6,2.2,12.1,6.8,15.5,12.8c2.5,4.4,4.3,9.3,5.2,14.3
	c1.3,6.5,1.9,13.2,1.8,19.8v0.2h11.2C357.7,271.3,356.8,262.6,354.8,254.1z"/>
<path class="st0" d="M236.4,110.9c-2.5,2.6-6,4.1-9.7,4.1c-3.6,0-7-1.4-9.6-3.9l-4.4,4.6c7.9,7.7,20.6,7.6,28.3-0.3c0,0,0,0,0,0
	C241,115.4,236.4,110.9,236.4,110.9z"/>
<polygon class="st1" points="296.9,70.9 270.4,97.3 260.6,87.5 252.7,95.4 262.5,105.3 270.4,113.2 278.3,105.3 304.8,78.8 "/>
<path class="st1" d="M62.4,244.1h11.5v32.3H62.4v-3.6c-2.3,3-6,4.8-9.8,4.6c-2.2,0.1-4.5-0.4-6.5-1.3c-1.9-0.9-3.7-2.1-5.2-3.6
	c-1.5-1.6-2.6-3.5-3.4-5.5c-0.8-2.2-1.2-4.5-1.2-6.8c0-4.4,1.6-8.7,4.5-12.1c1.4-1.5,3.2-2.8,5.1-3.6c2-0.9,4.3-1.4,6.5-1.4
	c3.8-0.1,7.4,1.4,10,4.2L62.4,244.1z M48.1,260.2c0,1,0.2,2,0.6,2.9c0.3,0.9,0.8,1.7,1.5,2.3c0.6,0.7,1.4,1.2,2.3,1.6
	c0.9,0.4,1.9,0.6,2.9,0.6c1,0,2-0.2,2.9-0.6c1.7-0.8,3.1-2.2,3.9-3.9c0.4-0.9,0.6-1.8,0.6-2.8c0-1-0.2-2-0.6-2.9
	c-0.8-1.7-2.2-3.1-3.9-3.9c-0.9-0.4-1.9-0.6-2.9-0.6c-1,0-2,0.2-2.9,0.6c-0.9,0.4-1.7,0.9-2.3,1.6c-0.7,0.6-1.2,1.4-1.5,2.3
	C48.3,258.3,48.1,259.2,48.1,260.2z"/>
<path class="st1" d="M105.9,254.6c-1.7-1.3-3.8-2.1-5.9-2.1c-2.1,0-4.1,0.8-5.6,2.2c-0.7,0.7-1.2,1.6-1.6,2.5c-0.4,1-0.6,2-0.6,3.1
	c0,1.1,0.2,2.2,0.6,3.2c0.4,0.9,0.9,1.7,1.6,2.4c0.7,0.7,1.6,1.2,2.5,1.6c1,0.4,2,0.6,3.1,0.6c2.2,0,4.2-0.8,5.9-2.2v9.7
	c-2.5,1.1-5.2,1.7-7.9,1.8c-2.3,0-4.6-0.4-6.7-1.2c-2.1-0.7-4-1.9-5.6-3.4c-1.7-1.5-3-3.4-3.9-5.4c-1-2.2-1.5-4.5-1.5-6.9
	c0-2.4,0.5-4.8,1.4-7c0.9-2.1,2.2-3.9,3.8-5.5c1.7-1.5,3.6-2.8,5.7-3.6c2.3-0.9,4.7-1.3,7.1-1.3c2.6,0,5.2,0.6,7.6,1.8V254.6z"/>
<path class="st1" d="M136.8,254.6c-1.7-1.3-3.8-2-6-2.1c-1.1,0-2.1,0.2-3.1,0.6c-0.9,0.4-1.7,0.9-2.4,1.6c-0.8,0.7-1.3,1.5-1.7,2.5
	c-0.4,1-0.6,2-0.6,3.1c0,1.1,0.2,2.2,0.6,3.2c0.4,0.9,0.9,1.7,1.6,2.4c0.7,0.7,1.6,1.2,2.5,1.6c1,0.4,2,0.6,3.1,0.6
	c2.2-0.1,4.3-0.8,6-2.2v9.7c-2.5,1.1-5.2,1.7-8,1.8c-2.3,0-4.6-0.4-6.7-1.2c-2.1-0.8-4-1.9-5.6-3.4c-1.6-1.5-3-3.4-3.9-5.4
	c-1-2.2-1.5-4.5-1.4-6.9c-0.1-2.4,0.4-4.8,1.3-7c0.9-2.1,2.2-3.9,3.8-5.5c1.7-1.5,3.6-2.8,5.7-3.6c2.3-0.9,4.7-1.3,7.1-1.3
	c2.7,0,5.3,0.6,7.7,1.8V254.6z"/>
<path class="st1" d="M152.2,262.2c0,4.9,2.3,7.3,6.9,7.3c2.3,0.1,4.4-1,5.6-3h11.1c-2.3,7.4-7.8,11.1-16.7,11.1
	c-2.6,0-5.1-0.4-7.5-1.3c-2.2-0.7-4.1-1.9-5.8-3.4c-1.6-1.6-2.9-3.4-3.8-5.5c-1.7-4.6-1.7-9.7,0-14.3c0.8-2.1,2-4,3.6-5.5
	c1.6-1.5,3.5-2.7,5.6-3.5c2.4-0.8,4.9-1.2,7.4-1.2c2.5,0,5,0.4,7.4,1.2c4.2,1.6,7.5,5,9,9.3c0.8,2.4,1.2,5,1.2,7.6v1.2L152.2,262.2z
	 M165.6,255.6c-0.4-1.5-1.2-2.9-2.4-3.9c-1.2-0.9-2.7-1.4-4.2-1.4c-1.6-0.1-3.1,0.4-4.3,1.4c-1.2,1-2,2.4-2.2,3.9H165.6z"/>
<path class="st1" d="M204.1,252.4c-1.9-1-4-1.6-6.2-1.6c-0.9,0-1.8,0.2-2.6,0.6c-0.6,0.4-0.9,1-0.9,1.7c0,0.3,0,0.6,0.1,0.9
	c0.2,0.3,0.4,0.5,0.7,0.7c0.5,0.3,1,0.4,1.6,0.5l2.7,0.7c2.6,0.4,5.1,1.5,7.1,3.3c1.5,1.7,2.3,3.9,2.3,6.2c0,1.8-0.4,3.5-1.1,5.1
	c-0.8,1.5-1.9,2.8-3.2,3.8c-1.4,1.1-3,2-4.8,2.4c-2,0.6-4.2,0.9-6.3,0.9c-4.5-0.1-8.9-1.4-12.8-3.7l4.1-8.1c3.2,2.2,6.2,3.3,9.1,3.3
	c0.9,0.1,1.8-0.2,2.5-0.7c0.6-0.4,1-1.1,1-1.8c0-0.3,0-0.7-0.1-1c-0.1-0.3-0.4-0.6-0.7-0.8l-1.4-0.6l-2.6-0.6
	c-3.5-0.7-6-1.8-7.4-3.2c-1.5-1.6-2.2-3.7-2.1-5.8c-0.2-3.3,1.3-6.5,3.9-8.5c1.4-1.1,2.9-1.9,4.6-2.4c1.9-0.5,3.9-0.8,5.9-0.8
	c3.6,0,7.1,0.7,10.4,2.1L204.1,252.4z"/>
<path class="st1" d="M213.9,231.7c0-0.9,0.2-1.7,0.5-2.5c0.4-0.7,0.8-1.4,1.4-2c0.6-0.6,1.3-1.1,2.1-1.4c0.8-0.3,1.6-0.5,2.4-0.5
	c0.9,0,1.7,0.2,2.5,0.5c0.8,0.3,1.5,0.8,2.1,1.4c0.6,0.6,1,1.3,1.4,2c0.7,1.6,0.7,3.4,0,5c-0.3,0.8-0.8,1.5-1.4,2.1
	c-0.6,0.5-1.3,1-2.1,1.3c-0.8,0.4-1.6,0.5-2.5,0.5c-0.8,0-1.7-0.1-2.4-0.5c-0.8-0.3-1.5-0.8-2.1-1.3c-0.6-0.6-1.1-1.3-1.4-2.1
	C214.1,233.4,213.9,232.6,213.9,231.7z M226.1,244.1v32.3h-11.4v-32.3H226.1z"/>
<path class="st1" d="M245.2,224.2v23.1c2.6-2.8,6.3-4.3,10.1-4.2c2.3,0,4.5,0.5,6.6,1.4c1.9,0.8,3.7,2.1,5.1,3.6
	c1.4,1.6,2.6,3.4,3.3,5.4c0.8,2.1,1.2,4.4,1.2,6.7c0,2.3-0.4,4.6-1.3,6.7c-0.8,2-1.9,3.9-3.4,5.5c-1.5,1.5-3.3,2.7-5.2,3.6
	c-2,0.9-4.2,1.4-6.4,1.4c-3.9,0.2-7.6-1.6-10-4.6v3.6h-11.3v-52.2H245.2z M259.6,260.3c0-1-0.2-1.9-0.6-2.8
	c-0.4-0.9-0.9-1.7-1.6-2.4c-0.7-0.7-1.4-1.2-2.3-1.6c-0.9-0.4-1.9-0.6-2.9-0.6c-1,0-1.9,0.2-2.8,0.6c-1.7,0.8-3.1,2.2-3.9,3.9
	c-0.4,0.9-0.6,1.9-0.6,2.9c0,1,0.2,1.9,0.6,2.8c0.8,1.7,2.2,3.1,3.9,3.9c0.9,0.4,1.9,0.6,2.9,0.6c1,0,1.9-0.2,2.8-0.6
	c1.7-0.8,3.1-2.2,3.9-3.9C259.4,262.2,259.6,261.3,259.6,260.3z"/>
<path class="st1" d="M288.1,224.2v52.2h-11.4v-52.2H288.1z"/>
<path class="st1" d="M304.9,262.2c0,4.9,2.3,7.3,6.9,7.3c2.3,0.1,4.4-1,5.6-3h11c-2.2,7.4-7.8,11.1-16.7,11.1
	c-2.6,0-5.1-0.4-7.5-1.3c-2.1-0.7-4.1-1.9-5.8-3.4c-3.3-3.3-5.1-7.8-5-12.5c0-2.5,0.4-5,1.2-7.3c0.8-2.1,2-3.9,3.6-5.5
	c1.6-1.5,3.5-2.7,5.6-3.5c2.4-0.8,4.9-1.2,7.5-1.2c2.5,0,5,0.4,7.3,1.2c2.1,0.8,4,2,5.6,3.6c1.5,1.6,2.7,3.6,3.4,5.7
	c0.8,2.4,1.2,5,1.2,7.6v1.2L304.9,262.2z M318.2,255.6c-0.4-1.5-1.2-2.9-2.3-3.9c-1.2-0.9-2.8-1.4-4.3-1.4c-1.6-0.1-3.1,0.4-4.3,1.4
	c-1.2,1-1.9,2.4-2.1,3.9H318.2z"/>
<path class="st2" d="M150.4,201.5h18.7v-18.7h11.7v18.7h18.6v11.7h-18.6v18.6h-11.7v-18.6h-18.7V201.5z"/>
<path class="st2" d="M64.6,194.7c-1.2-1-2.5-1.8-4-2.4c-1.2-0.5-2.6-0.8-3.9-0.8c-1.4-0.1-2.8,0.4-3.9,1.2c-1,0.6-1.5,1.7-1.5,2.9
	c0,0.8,0.2,1.5,0.7,2.1c0.6,0.5,1.3,1,2,1.4c0.9,0.4,1.8,0.7,2.8,1l3,1c4.1,1.3,7,3.1,8.9,5.4c1.9,2.5,2.9,5.6,2.8,8.7
	c0,2.3-0.4,4.5-1.2,6.6c-0.8,1.9-2.1,3.7-3.6,5.1c-1.7,1.5-3.7,2.6-5.8,3.3c-2.5,0.8-5.2,1.1-7.8,1.1c-5.9,0-11.8-1.9-16.6-5.3
	l5.2-10c1.6,1.5,3.5,2.8,5.5,3.7c1.7,0.8,3.5,1.2,5.4,1.2c1.6,0.1,3.2-0.4,4.4-1.4c0.9-0.8,1.5-1.9,1.5-3.1c0-0.7-0.1-1.3-0.4-1.9
	c-0.2-0.6-0.7-1.1-1.2-1.4c-0.7-0.5-1.5-1-2.3-1.3l-3.4-1.2l-4.7-1.7c-1.5-0.6-2.9-1.4-4.1-2.4c-1.2-1-2.2-2.3-2.9-3.8
	c-0.8-1.8-1.2-3.8-1.1-5.8c0-2.2,0.4-4.4,1.2-6.4c0.7-1.9,1.8-3.5,3.2-4.9c1.5-1.4,3.3-2.5,5.2-3.2c2.2-0.8,4.5-1.2,6.8-1.1
	c2.5,0,5,0.3,7.4,0.9c2.5,0.7,5,1.6,7.3,2.9L64.6,194.7z"/>
<path class="st2" d="M104.9,193H90.3v8h13.8v10.4H90.3v8.2h14.6V230H78v-47.4h26.9V193z"/>
<path class="st2" d="M152,230h-15.4l-11.7-18.2V230h-12.4v-47.4h19.2c2.4-0.1,4.7,0.3,6.9,1.2c3.7,1.3,6.5,4.1,7.8,7.8
	c0.7,1.8,1,3.7,1,5.6c0.1,3.1-0.8,6.2-2.6,8.8c-1.9,2.4-4.7,4-7.7,4.6L152,230z M124.9,203.8h2.3c2,0.1,3.9-0.4,5.6-1.5
	c1.3-1.1,2-2.7,1.9-4.4c0.1-1.7-0.6-3.3-1.9-4.3c-1.7-1.1-3.6-1.6-5.6-1.5h-2.3V203.8z"/>
</svg>
