<svg id="Capa_1" data-name="Capa 1" xmlns="http://www.w3.org/2000/svg" width="139.3mm" height="113.6mm" viewBox="0 0 394.7 322"><defs><style>.cls-1{fill:#b1b1b1;}.cls-2{fill:#35a8e0;}.cls-3{fill:#1d1d1b;}</style></defs><title>logo-ser</title><polygon class="cls-1" points="180.7 146.5 180.7 146.5 180.7 146.5 180.7 146.5"/><polygon class="cls-1" points="357.5 279.9 357.5 279.9 357 279.9 357.5 279.9"/><path class="cls-1" d="M354.7,254.1a56.7,56.7,0,0,0-6.4-15.3,41.1,41.1,0,0,0-7.7-8.9,42.8,42.8,0,0,0-16.2-8.6,66.9,66.9,0,0,0-15.5-2.6V187.3a82.3,82.3,0,0,0,28.7-25,80.6,80.6,0,0,0,14.3-37.8h0a118.4,118.4,0,0,0,.9-14.4,87.8,87.8,0,0,0-5.1-30.4,65,65,0,0,0-11-18.9,67.2,67.2,0,0,0-28.2-19.4c-11.7-4.5-25.6-6.8-41.8-6.8a69.1,69.1,0,0,0-28.8,5.8A58.2,58.2,0,0,0,222,51.3a74.5,74.5,0,0,0-15.8,22.2,143.5,143.5,0,0,0-9,24.6l-16.5,48.4a10,10,0,0,0-.5,3.4,10.3,10.3,0,0,0,2.8,7.2,12.4,12.4,0,0,0,3.2,2.3,9.1,9.1,0,0,0,4,1l16.9.8v35.3a10.7,10.7,0,0,0,3.1,7.5,9.9,9.9,0,0,0,7.4,3h16.2v10.7H245V206.4a10.4,10.4,0,0,0-10.6-10.5H218.3V177a21.6,21.6,0,0,0,6.2.9,20.4,20.4,0,0,0,11-3.2,21.1,21.1,0,0,0,7.9-8.8l-5.8-2.7h0a14.8,14.8,0,0,1-5.5,6.1,13.5,13.5,0,0,1-7.6,2.2,14.6,14.6,0,0,1-6.1-1.3v-9.6a10.4,10.4,0,0,0-10-10.5l-16.7-.8,16.3-47.9h.1a123.2,123.2,0,0,1,7.1-20.4A74.9,74.9,0,0,1,223,67.1a50.6,50.6,0,0,1,17.2-15.3c7-3.7,15.6-6,26.5-6,13.4,0,24.8,1.7,34.3,4.8a63.3,63.3,0,0,1,18.2,9.1A51.5,51.5,0,0,1,336,80.8c3.7,8.4,5.6,18.3,5.6,29.3a119.5,119.5,0,0,1-.8,13.1h0a69.5,69.5,0,0,1-37.4,54.4,11,11,0,0,0-4.1,3.9,10.3,10.3,0,0,0-1.6,5.4v42.8h5.6c8.4,0,15.1,1.2,20.5,3.2a28.3,28.3,0,0,1,15.5,12.8,44.4,44.4,0,0,1,5.2,14.3,96.9,96.9,0,0,1,1.8,19.8v.2h11.2A105.9,105.9,0,0,0,354.7,254.1Z"/><path class="cls-1" d="M236.3,110.9a13.3,13.3,0,0,1-9.7,4.1,13.7,13.7,0,0,1-9.6-3.9l-4.4,4.6a20,20,0,0,0,28.3-.3l-4.6-4.5Z"/><polygon class="cls-2" points="296.8 70.9 270.3 97.3 260.5 87.5 252.6 95.4 262.4 105.3 270.3 113.2 278.2 105.3 304.7 78.8 296.8 70.9"/><path class="cls-2" d="M62.3,244.1H73.8v32.3H62.3v-3.6a11.7,11.7,0,0,1-9.8,4.6,15.1,15.1,0,0,1-6.5-1.3,17.3,17.3,0,0,1-5.2-3.6,16.4,16.4,0,0,1-3.4-5.5,19.1,19.1,0,0,1-1.2-6.8,18.3,18.3,0,0,1,4.5-12.1,15.7,15.7,0,0,1,5.1-3.6,15.5,15.5,0,0,1,6.5-1.4,13,13,0,0,1,10,4.2ZM48,260.2a7.2,7.2,0,0,0,.6,2.9,5.1,5.1,0,0,0,1.5,2.3,6.3,6.3,0,0,0,2.3,1.6,7.2,7.2,0,0,0,2.9.6,6.8,6.8,0,0,0,2.9-.6,7.9,7.9,0,0,0,3.9-3.9,6.7,6.7,0,0,0,.6-2.8,7.2,7.2,0,0,0-.6-2.9,7.9,7.9,0,0,0-3.9-3.9,6.8,6.8,0,0,0-2.9-.6,7.2,7.2,0,0,0-2.9.6,6.3,6.3,0,0,0-2.3,1.6,5.1,5.1,0,0,0-1.5,2.3A6.1,6.1,0,0,0,48,260.2Z"/><path class="cls-2" d="M105.8,254.6a9.9,9.9,0,0,0-5.9-2.1,8.1,8.1,0,0,0-5.6,2.2,7.2,7.2,0,0,0-1.6,2.5,7.8,7.8,0,0,0-.6,3.1,8.3,8.3,0,0,0,.6,3.2,7.8,7.8,0,0,0,1.6,2.4,7.2,7.2,0,0,0,2.5,1.6,8.1,8.1,0,0,0,3.1.6,9.6,9.6,0,0,0,5.9-2.2v9.7a20,20,0,0,1-7.9,1.8,18.5,18.5,0,0,1-6.7-1.2,15.9,15.9,0,0,1-5.6-3.4,16.3,16.3,0,0,1-3.9-5.4,15.8,15.8,0,0,1-1.5-6.9,17.5,17.5,0,0,1,1.4-7,16.9,16.9,0,0,1,3.8-5.5,18.5,18.5,0,0,1,5.7-3.6,18.7,18.7,0,0,1,7.1-1.3,16.4,16.4,0,0,1,7.6,1.8Z"/><path class="cls-2" d="M136.7,254.6a10.4,10.4,0,0,0-6-2.1,8.1,8.1,0,0,0-3.1.6,7.8,7.8,0,0,0-2.4,1.6,6.2,6.2,0,0,0-1.7,2.5,7.8,7.8,0,0,0-.6,3.1,8.3,8.3,0,0,0,.6,3.2,7.8,7.8,0,0,0,1.6,2.4,7.2,7.2,0,0,0,2.5,1.6,8.1,8.1,0,0,0,3.1.6,10.1,10.1,0,0,0,6-2.2v9.7a20.4,20.4,0,0,1-8,1.8,18.5,18.5,0,0,1-6.7-1.2,16.8,16.8,0,0,1-5.6-3.4,17.8,17.8,0,0,1-3.9-5.4,15.8,15.8,0,0,1-1.4-6.9,17.5,17.5,0,0,1,1.3-7,16.9,16.9,0,0,1,3.8-5.5,18.5,18.5,0,0,1,5.7-3.6,18.7,18.7,0,0,1,7.1-1.3,16.8,16.8,0,0,1,7.7,1.8Z"/><path class="cls-2" d="M152.1,262.2c0,4.9,2.3,7.3,6.9,7.3a6.1,6.1,0,0,0,5.6-3h11.1c-2.3,7.4-7.8,11.1-16.7,11.1a20.4,20.4,0,0,1-7.5-1.3,15.9,15.9,0,0,1-5.8-3.4,17.5,17.5,0,0,1-3.8-5.5,20.3,20.3,0,0,1,0-14.3,14.6,14.6,0,0,1,3.6-5.5,16.7,16.7,0,0,1,5.6-3.5,21.7,21.7,0,0,1,7.4-1.2,21.3,21.3,0,0,1,7.4,1.2,15.2,15.2,0,0,1,9,9.3,22.4,22.4,0,0,1,1.2,7.6v1.2Zm13.4-6.6a7.2,7.2,0,0,0-2.4-3.9,6.6,6.6,0,0,0-4.2-1.4,6,6,0,0,0-4.3,1.4,5.9,5.9,0,0,0-2.2,3.9Z"/><path class="cls-2" d="M204,252.4a13.3,13.3,0,0,0-6.2-1.6,5,5,0,0,0-2.6.6,2,2,0,0,0-.9,1.7,2.2,2.2,0,0,0,.1.9,1.6,1.6,0,0,0,.7.7,5,5,0,0,0,1.6.5l2.7.7a13.1,13.1,0,0,1,7.1,3.3,9,9,0,0,1,2.3,6.2,11.9,11.9,0,0,1-1.1,5.1,10.7,10.7,0,0,1-3.2,3.8,12.1,12.1,0,0,1-4.8,2.4,20.8,20.8,0,0,1-6.3.9,25.8,25.8,0,0,1-12.8-3.7l4.1-8.1c3.2,2.2,6.2,3.3,9.1,3.3a3.9,3.9,0,0,0,2.5-.7,2.1,2.1,0,0,0,1-1.8,3.1,3.1,0,0,0-.1-1,1.7,1.7,0,0,0-.7-.8l-1.4-.6-2.6-.6c-3.5-.7-6-1.8-7.4-3.2a7.8,7.8,0,0,1-2.1-5.8,10.2,10.2,0,0,1,3.9-8.5,15.4,15.4,0,0,1,4.6-2.4,21,21,0,0,1,5.9-.8,26.8,26.8,0,0,1,10.4,2.1Z"/><path class="cls-2" d="M213.8,231.7a7,7,0,0,1,.5-2.5,9,9,0,0,1,1.4-2,7.7,7.7,0,0,1,2.1-1.4,6.4,6.4,0,0,1,2.4-.5,7,7,0,0,1,2.5.5,7.7,7.7,0,0,1,2.1,1.4,9,9,0,0,1,1.4,2,6.5,6.5,0,0,1,0,5,7.7,7.7,0,0,1-1.4,2.1,7.4,7.4,0,0,1-2.1,1.3,5.3,5.3,0,0,1-2.5.5,4.9,4.9,0,0,1-2.4-.5,7.4,7.4,0,0,1-2.1-1.3,7.7,7.7,0,0,1-1.4-2.1A7,7,0,0,1,213.8,231.7ZM226,244.1v32.3H214.6V244.1Z"/><path class="cls-2" d="M245.1,224.2v23.1a13.5,13.5,0,0,1,10.1-4.2,15.9,15.9,0,0,1,6.6,1.4,15.7,15.7,0,0,1,5.1,3.6,16.3,16.3,0,0,1,3.3,5.4,18.5,18.5,0,0,1,1.2,6.7,17,17,0,0,1-1.3,6.7,16.4,16.4,0,0,1-3.4,5.5,17.3,17.3,0,0,1-5.2,3.6,15.3,15.3,0,0,1-6.4,1.4,12.1,12.1,0,0,1-10-4.6v3.6H233.8V224.2Zm14.4,36.1a6.7,6.7,0,0,0-.6-2.8,7.8,7.8,0,0,0-1.6-2.4,7.9,7.9,0,0,0-2.3-1.6,6.8,6.8,0,0,0-2.9-.6,6.7,6.7,0,0,0-2.8.6,7.9,7.9,0,0,0-3.9,3.9,7.2,7.2,0,0,0-.6,2.9,6.7,6.7,0,0,0,.6,2.8,7.9,7.9,0,0,0,3.9,3.9,7.2,7.2,0,0,0,2.9.6,6.7,6.7,0,0,0,2.8-.6,7.9,7.9,0,0,0,3.9-3.9A6.7,6.7,0,0,0,259.5,260.3Z"/><path class="cls-2" d="M288,224.2v52.2H276.6V224.2Z"/><path class="cls-2" d="M304.8,262.2c0,4.9,2.3,7.3,6.9,7.3a6.2,6.2,0,0,0,5.6-3h11c-2.2,7.4-7.8,11.1-16.7,11.1a20.4,20.4,0,0,1-7.5-1.3,16.8,16.8,0,0,1-5.8-3.4,16.9,16.9,0,0,1-5-12.5,21.1,21.1,0,0,1,1.2-7.3,15.9,15.9,0,0,1,3.6-5.5,16.7,16.7,0,0,1,5.6-3.5,21.9,21.9,0,0,1,7.5-1.2,20.7,20.7,0,0,1,7.3,1.2,16.9,16.9,0,0,1,5.6,3.6,16.3,16.3,0,0,1,3.4,5.7,22.4,22.4,0,0,1,1.2,7.6v1.2Zm13.3-6.6a7.7,7.7,0,0,0-2.3-3.9,6.9,6.9,0,0,0-4.3-1.4,6,6,0,0,0-4.3,1.4,6.2,6.2,0,0,0-2.1,3.9Z"/><path class="cls-3" d="M150.3,201.5H169V182.8h11.7v18.7h18.6v11.7H180.7v18.6H169V213.2H150.3Z"/><path class="cls-3" d="M64.5,194.7a14.2,14.2,0,0,0-4-2.4,10.9,10.9,0,0,0-3.9-.8,6.1,6.1,0,0,0-3.9,1.2,3.4,3.4,0,0,0-1.5,2.9,3.1,3.1,0,0,0,.7,2.1,10.1,10.1,0,0,0,2,1.4,18.3,18.3,0,0,0,2.8,1l3,1c4.1,1.3,7,3.1,8.9,5.4a13.3,13.3,0,0,1,2.8,8.7,16.9,16.9,0,0,1-1.2,6.6,15.7,15.7,0,0,1-3.6,5.1,17.2,17.2,0,0,1-5.8,3.3,26.7,26.7,0,0,1-7.8,1.1A28.7,28.7,0,0,1,36.4,226l5.2-10a21.2,21.2,0,0,0,5.5,3.7,13.2,13.2,0,0,0,5.4,1.2,6.1,6.1,0,0,0,4.4-1.4,4.2,4.2,0,0,0,1.5-3.1,3.6,3.6,0,0,0-.4-1.9,3.1,3.1,0,0,0-1.2-1.4,9.9,9.9,0,0,0-2.3-1.3l-3.4-1.2-4.7-1.7a15.2,15.2,0,0,1-4.1-2.4,11,11,0,0,1-2.9-3.8,13.9,13.9,0,0,1-1.1-5.8,16.2,16.2,0,0,1,1.2-6.4,12.7,12.7,0,0,1,3.2-4.9,15.2,15.2,0,0,1,5.2-3.2,18.3,18.3,0,0,1,6.8-1.1,32.5,32.5,0,0,1,7.4.9,32.7,32.7,0,0,1,7.3,2.9Z"/><path class="cls-3" d="M104.8,193H90.2v8H104v10.4H90.2v8.2h14.6V230H77.9V182.6h26.9Z"/><path class="cls-3" d="M151.9,230H136.5l-11.7-18.2V230H112.4V182.6h19.2a17.8,17.8,0,0,1,6.9,1.2,12.6,12.6,0,0,1,7.8,7.8,14.7,14.7,0,0,1,1,5.6,14.2,14.2,0,0,1-2.6,8.8,13.1,13.1,0,0,1-7.7,4.6Zm-27.1-26.2h2.3a9.1,9.1,0,0,0,5.6-1.5,5.2,5.2,0,0,0,1.9-4.4,5,5,0,0,0-1.9-4.3,9.1,9.1,0,0,0-5.6-1.5h-2.3Z"/></svg>