<?xml version="1.0" encoding="utf-8"?>
<!-- Generator: Adobe Illustrator 23.0.1, SVG Export Plug-In . SVG Version: 6.00 Build 0)  -->
<svg version="1.1" id="Capa_1" xmlns="http://www.w3.org/2000/svg" xmlns:xlink="http://www.w3.org/1999/xlink" x="0px" y="0px"
	 viewBox="0 0 490 404" style="enable-background:new 0 0 490 404;" xml:space="preserve">
<style type="text/css">
	.st0{fill:#02B1E0;}
	.st1{fill:#FFED00;}
	.st2{opacity:0.44;}
	.st3{fill:#0088AE;}
	.st4{fill:#E95123;}
	.st5{fill:#C45B2E;}
	.st6{fill:#FDCE0A;}
	.st7{fill:#EE7158;}
</style>
<g>
	<path class="st0" d="M359,350h-15.5v-44.7c0-5.6-1.1-9.8-3.4-12.6c-2.3-2.8-5.8-4.1-10.7-4.1c-6.5,0-11.3,1.9-14.3,5.8
		c-3,3.9-4.5,10.3-4.5,19.4V350h-15.4v-72.7h12.1l2.2,9.5h0.8c2.2-3.5,5.3-6.1,9.3-8c4-1.9,8.5-2.8,13.4-2.8
		c17.4,0,26.1,8.9,26.1,26.6V350z M273,350h-15.4v-72.7H273V350z M207.3,350l-9.4-33.9c-1.1-3.6-3.2-11.9-6.2-25h-0.6
		c-2.5,11.8-4.6,20.2-6,25.2l-9.7,33.8h-17.1L138,277.3h15.8l9.3,35.8c2.1,8.9,3.6,16.4,4.5,22.7h0.4c0.4-3.2,1.1-6.9,2-11
		c0.9-4.1,1.7-7.2,2.3-9.3l11-38.2h16.9l10.7,38.2c0.7,2.1,1.5,5.4,2.5,9.9c1,4.4,1.6,7.9,1.7,10.3h0.5c0.7-5.4,2.2-12.9,4.6-22.6
		l9.4-35.8h15.5L224.6,350H207.3z"/>
	<g>
		<path class="st1" d="M171.5,99c41.7,0,75.5,33.8,75.5,75.5V250h-75.5c-41.7,0-75.5-33.8-75.5-75.5C96,132.8,129.8,99,171.5,99"/>
	</g>
	<g class="st2">
		<path class="st3" d="M146,48C90.2,48,45,93.2,45,149s45.2,101,101,101h101h-75.5c-41.7,0-75.5-33.8-75.5-75.5
			c0-41.7,33.8-75.5,75.5-75.5s75.5,33.8,75.5,75.5V149C247,93.2,201.8,48,146,48"/>
	</g>
	<g class="st2">
		<path class="st4" d="M348,49c-55.8,0-101,45.2-101,101v24.5V250v1h101c55.8,0,101-45.2,101-101C449,94.2,403.8,49,348,49 M247,250
			v-75.5c0-41.7,33.8-75.5,75.5-75.5s75.5,33.8,75.5,75.5c0,41.7-33.8,75.5-75.5,75.5H247z"/>
	</g>
	<g>
		<path class="st5" d="M322.5,99c-41.7,0-75.5,33.8-75.5,75.5V250h75.5c41.7,0,75.5-33.8,75.5-75.5C398,132.8,364.2,99,322.5,99
			 M247,250v-50.5c0-27.9,22.6-50.5,50.5-50.5c27.9,0,50.5,22.6,50.5,50.5c0,27.9-22.6,50.5-50.5,50.5H247z"/>
	</g>
	<path class="st6" d="M195.5,148c-27.9,0-50.5,22.6-50.5,50.5c0,27.9,22.6,50.5,50.5,50.5H246v-50.5C246,170.6,223.4,148,195.5,148"
		/>
	<path class="st7" d="M297.5,149c-27.9,0-50.5,22.6-50.5,50.5V250h50.5c27.9,0,50.5-22.6,50.5-50.5C348,171.6,325.4,149,297.5,149"
		/>
</g>
</svg>
